<svg version="1.1" id="Layer_1" xmlns="http://www.w3.org/2000/svg" xmlns:xlink="http://www.w3.org/1999/xlink" x="0px" y="0px"
	 width="100%" viewBox="0 0 1024 1024" enable-background="new 0 0 1024 1024" xml:space="preserve">
<path fill="#FEFEFE" opacity="1.000000" stroke="none" 
	d="
M571.000000,1025.000000 
	C380.666656,1025.000000 190.833328,1025.000000 1.000000,1025.000000 
	C1.000000,683.666687 1.000000,342.333344 1.000000,1.000000 
	C342.333344,1.000000 683.666687,1.000000 1025.000000,1.000000 
	C1025.000000,342.333344 1025.000000,683.666687 1025.000000,1025.000000 
	C873.833313,1025.000000 722.666687,1025.000000 571.000000,1025.000000 
M475.458832,511.946259 
	C475.458832,515.939026 475.458832,519.931824 475.458832,524.013000 
	C479.329193,524.013000 482.236023,524.013000 485.485077,524.013000 
	C485.485077,517.540222 485.485077,511.329041 485.713318,504.437286 
	C485.961517,500.673676 487.938721,498.445435 491.735321,498.599365 
	C496.002106,498.772339 496.532532,502.055786 496.556702,505.410828 
	C496.601868,511.671600 496.569672,517.932983 496.569672,524.160767 
	C500.413208,524.160767 503.356628,524.160767 506.805725,524.160767 
	C506.805725,522.096497 506.800903,520.306458 506.806671,518.516357 
	C506.822205,513.689392 506.303528,508.770416 507.105011,504.077240 
	C507.465088,501.968964 510.195312,499.250641 512.336365,498.699951 
	C515.521606,497.880676 517.371399,500.557129 517.623840,503.816803 
	C517.777771,505.804504 517.764099,507.807404 517.772095,509.803711 
	C517.791138,514.544312 517.778198,519.285095 517.778198,524.066711 
	C521.573608,524.066711 524.516663,524.066711 527.659790,524.066711 
	C527.659790,515.866150 528.259583,507.859955 527.502930,499.984070 
	C526.621948,490.813873 517.104065,486.637878 509.076080,491.296539 
	C507.676270,492.108826 506.440857,493.204346 504.983765,494.276337 
	C501.571655,490.301971 497.152588,487.808197 492.250366,489.770996 
	C488.046173,491.454285 484.071747,491.011169 479.933716,490.972351 
	C478.346466,490.957458 476.758911,490.969940 475.125549,490.969940 
	C475.125549,494.040131 475.125549,496.523010 474.990997,499.904602 
	C475.028809,502.937012 475.066620,505.969452 474.983093,509.586365 
	C475.151550,510.132324 475.319977,510.678314 475.458832,511.946259 
M300.346436,512.105652 
	C297.134979,520.984619 292.245392,528.809082 285.031464,534.926819 
	C281.213165,538.164978 279.416504,542.104309 278.447815,547.274414 
	C278.326904,547.863037 278.205994,548.451721 277.693634,549.634094 
	C273.710052,563.009277 268.271423,575.960266 265.651825,589.930176 
	C269.210266,587.268066 271.790833,584.151489 274.233398,580.930359 
	C280.238159,573.011597 286.179413,565.044678 292.767761,556.872742 
	C299.564941,548.363586 306.397034,539.881958 313.132233,531.324036 
	C314.620026,529.433533 315.764648,527.273010 317.662231,524.900940 
	C324.162201,516.989685 330.736053,509.137390 337.121643,501.134888 
	C339.328583,498.369110 338.019592,496.847321 334.762726,496.862122 
	C327.153381,496.896667 319.544373,497.010376 311.304199,496.568542 
	C311.828888,493.561371 312.353607,490.554169 313.309448,487.072876 
	C315.188477,482.707001 317.067505,478.341156 319.389954,473.443726 
	C324.243225,462.067749 329.101410,450.693878 333.947693,439.314972 
	C336.389984,433.580627 335.584595,432.561829 328.403778,432.808441 
	C326.935486,432.877045 325.467163,432.945679 323.083069,432.797791 
	C314.733063,432.841736 306.383087,432.885681 297.480164,432.711548 
	C296.306488,432.780121 295.132843,432.848694 293.132172,432.682373 
	C291.423309,432.759735 289.714447,432.837128 287.305023,432.696503 
	C284.814819,433.397797 282.324615,434.099091 279.834442,434.800415 
	C281.291260,436.899963 282.367767,439.466248 284.271454,441.017426 
	C292.070892,447.372528 297.554077,455.250183 300.848877,464.682526 
	C302.034241,468.075958 302.945343,471.565125 303.896606,475.944763 
	C305.903778,488.085236 304.083649,499.899536 300.346436,512.105652 
M298.059692,478.175018 
	C297.009857,468.610901 293.818573,459.957733 287.062347,452.092590 
	C282.707825,449.060822 278.353302,446.029022 273.458313,442.771881 
	C272.356750,442.105743 271.255188,441.439606 270.118988,440.817108 
	C270.118988,440.817108 270.173157,440.787354 269.828827,440.179749 
	C262.329559,438.197815 254.905533,434.952179 247.315170,434.500244 
	C232.088684,433.593689 216.769699,434.077759 201.492203,434.262177 
	C194.250366,434.349579 188.968384,438.813568 188.032959,445.876709 
	C186.443619,457.877411 185.380875,469.947845 183.846085,482.798065 
	C182.934006,490.527954 182.021927,498.257812 180.923218,506.724792 
	C180.936234,507.480225 180.949265,508.235657 180.716064,509.444183 
	C180.715302,509.947815 180.714539,510.451477 180.305618,511.739197 
	C179.991913,514.816467 179.678192,517.893738 179.109833,521.799194 
	C178.795715,525.195740 178.481583,528.592346 177.934067,532.776245 
	C176.666626,543.503601 175.399200,554.230957 173.905930,565.751587 
	C173.236450,571.375061 172.475494,576.989563 171.922714,582.624512 
	C171.346085,588.502869 172.914795,590.357056 178.688492,590.466980 
	C186.352341,590.612976 194.021957,590.645752 201.686188,590.531433 
	C209.885239,590.409180 214.733551,586.066223 215.734283,577.892761 
	C216.502213,571.620728 216.935608,565.307739 217.765732,558.155334 
	C218.067139,554.738770 218.368530,551.322266 218.916275,547.438354 
	C218.954178,547.266418 218.992081,547.094421 219.961334,546.850830 
	C227.426682,546.812439 234.899841,546.980652 242.356018,546.699219 
	C271.947906,545.582581 293.531372,526.922241 297.864807,498.467316 
	C297.896820,491.982483 297.928833,485.497620 298.059692,478.175018 
M776.696655,508.962646 
	C778.151672,514.033325 779.606689,519.104065 781.041687,524.104858 
	C784.737488,524.104858 787.999512,524.104858 791.447693,524.104858 
	C794.805359,512.899536 798.114929,501.854889 801.547119,490.401001 
	C797.716736,490.401001 794.630981,490.401001 791.314270,490.401001 
	C789.560913,497.035919 787.838257,503.555023 785.981812,510.580200 
	C785.243042,509.366272 784.829834,508.687286 784.447083,507.384125 
	C782.852661,501.635315 781.258240,495.886505 779.728455,490.371033 
	C770.443665,490.138580 770.439148,490.137329 768.169006,498.360260 
	C767.098450,502.238007 766.048950,506.121613 764.989929,510.002563 
	C764.707642,509.966125 764.425415,509.929688 764.143127,509.893250 
	C762.471313,503.338196 760.799438,496.783173 759.184143,490.449768 
	C755.607056,490.449768 752.509277,490.449768 748.791931,490.449768 
	C751.450317,499.286224 753.901672,507.688232 756.510254,516.041138 
	C759.700256,526.255615 756.835876,524.057434 767.629456,524.377930 
	C768.084900,524.391418 768.547974,524.147705 769.217651,523.967224 
	C770.941406,517.784424 772.671936,511.577332 774.708984,504.270660 
	C775.763855,506.421997 776.187805,507.286530 776.696655,508.962646 
M625.363892,491.255188 
	C624.080627,492.247864 622.797424,493.240540 621.546265,494.208405 
	C614.917419,488.037750 610.074219,487.778656 602.468079,492.895111 
	C599.885071,487.929626 595.781738,490.937897 592.171143,490.466370 
	C592.171143,501.866364 592.171143,512.811340 592.171143,523.884888 
	C595.592407,523.884888 598.810547,523.884888 602.171326,523.884888 
	C602.171326,517.367371 602.304199,511.213928 602.124939,505.069580 
	C602.004089,500.928070 603.980774,498.618378 607.839050,498.571442 
	C611.760437,498.523743 613.111450,501.195801 613.024353,504.965485 
	C612.879089,511.257690 612.984802,517.555664 612.984802,524.083984 
	C616.514160,524.083984 619.604492,524.083984 623.089233,524.083984 
	C623.089233,518.106079 623.234009,512.313477 623.045288,506.531708 
	C622.882568,501.545105 624.704895,498.508453 630.615051,498.652130 
	C631.774719,500.806854 633.769775,502.899872 633.934448,505.128113 
	C634.393677,511.342010 634.094055,517.611938 634.094055,524.016296 
	C637.801575,524.016296 640.863098,524.016296 644.128113,524.016296 
	C644.200928,522.939697 644.302856,522.138977 644.301758,521.338379 
	C644.292908,514.869873 644.497986,508.390167 644.189209,501.935364 
	C643.691467,491.528900 635.721130,486.909637 625.363892,491.255188 
M388.957489,510.276947 
	C399.198242,509.360565 405.178619,504.227844 405.739838,495.873322 
	C406.371155,486.475403 401.280945,478.602173 392.466217,477.603790 
	C384.305420,476.679413 375.957550,477.406799 367.355164,477.406799 
	C367.355164,493.026764 367.355164,508.433167 367.355164,523.945435 
	C370.859131,523.945435 374.204071,523.945435 378.066254,523.945435 
	C378.066254,519.196533 378.066254,514.942627 378.066254,510.303894 
	C381.747009,510.303894 384.901978,510.303894 388.957489,510.276947 
M669.013245,500.500000 
	C669.013245,508.284393 669.013245,516.068787 669.013245,523.956787 
	C672.625793,523.956787 675.846191,523.956787 679.688477,523.956787 
	C679.688477,519.201721 679.688477,514.796692 679.688477,510.116211 
	C684.298828,510.116211 688.293152,510.316010 692.260681,510.075378 
	C700.981812,509.546539 706.685364,504.053680 707.425598,495.769592 
	C708.226746,486.803619 703.178894,478.640656 694.706604,477.647095 
	C686.406860,476.673767 677.903687,477.435120 669.010681,477.435120 
	C669.010681,484.954071 669.010681,492.227020 669.013245,500.500000 
M823.096252,489.377106 
	C815.960999,488.983398 809.893982,490.997223 806.066650,497.435883 
	C802.261597,503.836975 802.315552,510.475800 806.010742,516.853577 
	C809.852051,523.483643 816.103699,525.721313 823.427246,525.072021 
	C829.731201,524.513123 834.542725,521.586731 837.328857,515.521423 
	C830.846802,513.373657 830.846802,513.373596 825.445435,515.921692 
	C820.258301,518.368652 815.277283,516.019043 814.319519,510.255676 
	C822.264648,510.255676 830.146118,510.255676 837.932861,510.255676 
	C839.718567,499.280792 834.550171,491.841278 823.096252,489.377106 
M710.379272,504.916199 
	C710.529602,507.221802 710.426025,509.578339 710.876465,511.823730 
	C712.408813,519.461426 718.139832,524.330750 726.230591,525.130920 
	C734.977722,525.995972 741.883240,522.338196 744.980591,515.078674 
	C747.970276,508.071320 747.355164,501.251587 742.528076,495.408142 
	C737.603943,489.447113 730.808594,488.130859 723.518738,489.998169 
	C716.255859,491.858551 711.810364,496.581024 710.379272,504.916199 
M575.209656,523.516785 
	C578.336426,523.849731 581.463196,524.182617 584.449402,524.500610 
	C584.449402,512.487427 584.449402,501.413727 584.449402,490.349731 
	C581.044434,490.349731 578.104309,490.349731 574.628235,490.349731 
	C574.628235,496.577911 574.697754,502.546844 574.606873,508.513336 
	C574.529846,513.574402 572.178467,516.217468 568.072205,516.066650 
	C563.169373,515.886658 562.759766,512.436707 562.766846,508.688995 
	C562.778442,502.584595 562.769958,496.480133 562.769958,490.430298 
	C558.827515,490.430298 555.750000,490.430298 552.210449,490.430298 
	C552.210449,497.376251 552.167114,504.000519 552.224365,510.623932 
	C552.268738,515.760254 552.856995,520.937805 557.993347,523.570801 
	C563.264038,526.272705 568.592224,525.950806 573.399658,521.988525 
	C573.597900,521.825195 574.491455,522.505432 575.209656,523.516785 
M443.368134,491.755554 
	C435.732910,497.044861 433.134674,504.698273 435.975586,513.531189 
	C438.393890,521.050110 445.429382,525.762634 453.657471,525.374756 
	C461.511871,525.004639 466.993988,521.131287 468.851013,513.329956 
	C464.748260,514.174194 461.033936,514.320190 457.877075,515.721741 
	C452.004181,518.329102 447.116211,516.664917 445.563354,510.347473 
	C453.693115,510.347473 461.717804,510.347473 470.011108,510.347473 
	C470.585785,503.231262 469.234009,497.174622 463.781647,493.010132 
	C457.722656,488.382324 450.920410,488.108063 443.368134,491.755554 
M843.481445,492.094666 
	C843.481445,502.697052 843.481445,513.299438 843.481445,524.000732 
	C847.230652,524.000732 850.319275,524.000732 853.622864,524.000732 
	C853.622864,517.764587 853.595520,511.793396 853.631958,505.822571 
	C853.659241,501.345398 856.076599,499.135803 860.446411,498.938629 
	C861.885742,498.873688 863.330444,498.928375 864.882629,498.928375 
	C865.023560,495.800903 865.149109,493.016449 865.340637,488.767487 
	C860.931335,490.146515 857.355347,491.264954 853.682007,492.413818 
	C851.187744,488.861389 847.506226,489.533997 843.481445,492.094666 
M410.899536,509.495453 
	C410.899536,514.274841 410.899536,519.054260 410.899536,524.015869 
	C414.476349,524.015869 417.563385,524.015869 421.019867,524.015869 
	C421.019867,518.611023 421.006836,513.483459 421.023010,508.355988 
	C421.046143,501.027405 423.094177,499.056458 430.535858,499.097412 
	C431.290344,499.101593 432.045959,498.899933 432.723755,498.804657 
	C432.723755,495.710541 432.723755,492.951874 432.723755,488.718536 
	C428.374237,490.241394 424.730408,491.517181 421.115356,492.782898 
	C419.609558,487.405945 414.960175,490.985840 410.893799,490.181030 
	C410.893799,496.631622 410.893799,502.564728 410.899536,509.495453 
M545.171204,498.554016 
	C545.171204,495.952240 545.171204,493.350464 545.171204,490.585968 
	C541.548157,490.585968 538.511353,490.585968 535.261597,490.585968 
	C535.261597,501.966003 535.261597,512.958252 535.261597,524.065308 
	C538.667419,524.065308 541.742126,524.065308 545.173950,524.065308 
	C545.173950,515.703064 545.173950,507.620636 545.171204,498.554016 
M538.905212,485.836548 
	C542.489014,486.255127 545.656433,485.153992 545.692383,481.304901 
	C545.711548,479.252899 543.661194,475.809174 542.020142,475.459961 
	C539.947998,475.019012 536.413574,476.446136 535.171753,478.226562 
	C533.070374,481.239349 534.582031,484.194153 538.905212,485.836548 
z"/>
<path fill="#14A9E0" opacity="1.000000" stroke="none" 
	d="
M297.556976,499.149292 
	C293.531372,526.922241 271.947906,545.582581 242.356018,546.699219 
	C234.899841,546.980652 227.426682,546.812439 219.480469,546.449707 
	C219.667969,540.034851 220.336334,534.021057 221.009079,527.577026 
	C220.998322,525.424011 220.983185,523.701233 221.003998,521.758545 
	C221.039948,521.538635 221.113327,521.098999 221.484039,521.072388 
	C225.593735,519.094116 229.332748,517.142395 233.523224,515.140259 
	C248.088486,515.533264 259.764801,511.810791 265.298950,497.040436 
	C267.281708,498.067596 268.903046,499.850616 270.525391,499.851532 
	C279.535767,499.856598 288.546417,499.428925 297.556976,499.149292 
z"/>
<path fill="#1E3F84" opacity="1.000000" stroke="none" 
	d="
M184.096832,481.988953 
	C185.380875,469.947845 186.443619,457.877411 188.032959,445.876709 
	C188.968384,438.813568 194.250366,434.349579 201.492203,434.262177 
	C216.769699,434.077759 232.088684,433.593689 247.315170,434.500244 
	C254.905533,434.952179 262.329559,438.197815 269.598816,440.542603 
	C262.860077,443.844604 256.030609,446.247833 249.942749,449.890442 
	C244.962555,452.870270 240.969025,457.459900 236.326294,461.062988 
	C234.561600,462.432526 232.147079,463.955444 230.129578,463.826752 
	C223.516113,463.404968 219.270737,466.547455 215.653366,471.527863 
	C212.007782,476.547028 206.994919,478.785217 200.688217,478.510803 
	C198.307358,478.407227 195.870651,479.280670 193.479340,479.800476 
	C190.341507,480.482513 187.223404,481.255219 184.096832,481.988953 
z"/>
<path fill="#164D91" opacity="1.000000" stroke="none" 
	d="
M183.971466,482.393494 
	C187.223404,481.255219 190.341507,480.482513 193.479340,479.800476 
	C195.870651,479.280670 198.307358,478.407227 200.688217,478.510803 
	C206.994919,478.785217 212.007782,476.547028 215.653366,471.527863 
	C219.270737,466.547455 223.516113,463.404968 230.129578,463.826752 
	C232.147079,463.955444 234.561600,462.432526 236.326294,461.062988 
	C240.969025,457.459900 244.962555,452.870270 249.942749,449.890442 
	C256.030609,446.247833 262.860077,443.844604 269.770996,440.846375 
	C270.173157,440.787354 270.118988,440.817108 270.096252,441.178589 
	C270.811035,443.039368 271.548523,444.538727 272.286041,446.038055 
	C272.685242,445.900665 273.084473,445.763275 273.483673,445.625885 
	C273.655396,444.749664 273.827087,443.873474 273.998779,442.997253 
	C278.353302,446.029022 282.707825,449.060822 287.043945,452.774597 
	C286.684906,454.638580 286.344269,455.820496 285.628906,457.005646 
	C281.020813,459.653656 276.702209,462.173218 272.579437,464.980408 
	C268.867523,467.507904 265.370331,470.350800 261.494568,472.886444 
	C257.410797,470.521606 253.800461,466.993958 249.769394,466.419678 
	C242.525513,465.387634 235.029068,466.128326 227.421722,466.128326 
	C226.520630,473.401917 225.675323,480.225159 224.444809,487.038361 
	C218.039627,488.191681 211.910934,488.975616 206.039566,490.657715 
	C202.391937,491.702759 198.047241,493.287201 195.935898,496.080933 
	C191.978683,501.317139 187.148163,504.325806 181.109863,505.987701 
	C182.021927,498.257812 182.934006,490.527954 183.971466,482.393494 
z"/>
<path fill="#14A9E0" opacity="1.000000" stroke="none" 
	d="
M217.517761,559.013000 
	C216.935608,565.307739 216.502213,571.620728 215.734283,577.892761 
	C214.733551,586.066223 209.885239,590.409180 201.686188,590.531433 
	C194.021957,590.645752 186.352341,590.612976 178.688492,590.466980 
	C172.914795,590.357056 171.346085,588.502869 171.922714,582.624512 
	C172.475494,576.989563 173.236450,571.375061 174.374237,565.359192 
	C178.163818,562.092957 181.407333,559.122437 184.826584,556.370239 
	C188.875427,553.111206 193.075821,550.040466 197.478973,547.073608 
	C204.337509,551.177063 210.927628,555.095032 217.517761,559.013000 
z"/>
<path fill="#1962A1" opacity="1.000000" stroke="none" 
	d="
M181.016541,506.356262 
	C187.148163,504.325806 191.978683,501.317139 195.935898,496.080933 
	C198.047241,493.287201 202.391937,491.702759 206.039566,490.657715 
	C211.910934,488.975616 218.039627,488.191681 224.466370,487.451050 
	C223.929306,496.853790 222.985489,505.833740 222.020050,515.213440 
	C221.703415,517.441772 221.408386,519.270386 221.113342,521.098999 
	C221.113327,521.098999 221.039948,521.538635 220.578857,521.757446 
	C218.662003,522.180054 217.203430,522.365845 215.750870,522.590515 
	C203.513214,524.482727 191.314102,525.539307 179.364471,520.971008 
	C179.678192,517.893738 179.991913,514.816467 180.743637,511.269562 
	C181.108536,510.196991 181.035416,509.594025 180.962311,508.991089 
	C180.949265,508.235657 180.936234,507.480225 181.016541,506.356262 
z"/>
<path fill="#14A9E0" opacity="1.000000" stroke="none" 
	d="
M388.507233,510.290405 
	C384.901978,510.303894 381.747009,510.303894 378.066254,510.303894 
	C378.066254,514.942627 378.066254,519.196533 378.066254,523.945435 
	C374.204071,523.945435 370.859131,523.945435 367.355164,523.945435 
	C367.355164,508.433167 367.355164,493.026764 367.355164,477.406799 
	C375.957550,477.406799 384.305420,476.679413 392.466217,477.603790 
	C401.280945,478.602173 406.371155,486.475403 405.739838,495.873322 
	C405.178619,504.227844 399.198242,509.360565 388.507233,510.290405 
M395.198517,494.355774 
	C395.243835,486.645264 390.711914,485.758972 378.132996,487.236511 
	C378.132996,491.769531 378.132996,496.315521 378.132996,501.249908 
	C381.462250,501.249908 384.434357,501.200104 387.404175,501.261810 
	C391.670654,501.350464 394.428528,499.597870 395.198517,494.355774 
z"/>
<path fill="#1E3F84" opacity="1.000000" stroke="none" 
	d="
M288.005585,432.914490 
	C289.714447,432.837128 291.423309,432.759735 293.754272,433.076233 
	C295.595306,433.289948 296.814178,433.109802 298.033081,432.929626 
	C306.383087,432.885681 314.733063,432.841736 323.687531,433.231384 
	C325.660645,435.463379 325.741669,439.173553 329.885681,437.300568 
	C329.578308,435.803284 329.291656,434.406769 329.004974,433.010223 
	C335.584595,432.561829 336.389984,433.580627 333.947693,439.314972 
	C329.101410,450.693878 324.243225,462.067749 318.901245,473.509094 
	C314.952820,471.721466 311.493073,469.868439 307.985962,467.655182 
	C304.698944,461.760590 301.610779,456.130157 298.178528,450.717957 
	C294.509827,444.932953 287.509644,441.081421 288.005585,432.914490 
z"/>
<path fill="#224E8D" opacity="1.000000" stroke="none" 
	d="
M669.011963,500.000000 
	C669.010681,492.227020 669.010681,484.954071 669.010681,477.435120 
	C677.903687,477.435120 686.406860,476.673767 694.706604,477.647095 
	C703.178894,478.640656 708.226746,486.803619 707.425598,495.769592 
	C706.685364,504.053680 700.981812,509.546539 692.260681,510.075378 
	C688.293152,510.316010 684.298828,510.116211 679.688477,510.116211 
	C679.688477,514.796692 679.688477,519.201721 679.688477,523.956787 
	C675.846191,523.956787 672.625793,523.956787 669.013245,523.956787 
	C669.013245,516.068787 669.013245,508.284393 669.011963,500.000000 
M696.709595,495.966187 
	C697.854736,487.263336 692.091309,484.965973 679.732422,487.299744 
	C679.732422,491.768158 679.732422,496.210815 679.732422,501.039948 
	C683.130127,501.039948 686.382568,501.597198 689.318054,500.871826 
	C691.881104,500.238434 694.087097,498.160492 696.709595,495.966187 
z"/>
<path fill="#1A91CD" opacity="1.000000" stroke="none" 
	d="
M475.125549,499.005890 
	C475.125549,496.523010 475.125549,494.040131 475.125549,490.969940 
	C476.758911,490.969940 478.346466,490.957458 479.933716,490.972351 
	C484.071747,491.011169 488.046173,491.454285 492.250366,489.770996 
	C497.152588,487.808197 501.571655,490.301971 504.983765,494.276337 
	C506.440857,493.204346 507.676270,492.108826 509.076080,491.296539 
	C517.104065,486.637878 526.621948,490.813873 527.502930,499.984070 
	C528.259583,507.859955 527.659790,515.866150 527.659790,524.066711 
	C524.516663,524.066711 521.573608,524.066711 517.778198,524.066711 
	C517.778198,519.285095 517.791138,514.544312 517.772095,509.803711 
	C517.764099,507.807404 517.777771,505.804504 517.623840,503.816803 
	C517.371399,500.557129 515.521606,497.880676 512.336365,498.699951 
	C510.195312,499.250641 507.465088,501.968964 507.105011,504.077240 
	C506.303528,508.770416 506.822205,513.689392 506.806671,518.516357 
	C506.800903,520.306458 506.805725,522.096497 506.805725,524.160767 
	C503.356628,524.160767 500.413208,524.160767 496.569672,524.160767 
	C496.569672,517.932983 496.601868,511.671600 496.556702,505.410828 
	C496.532532,502.055786 496.002106,498.772339 491.735321,498.599365 
	C487.938721,498.445435 485.961517,500.673676 485.208313,504.725220 
	C481.510742,503.010712 478.318146,501.008301 475.125549,499.005890 
M485.662018,492.063934 
	C485.604431,492.266602 485.546844,492.469269 485.489258,492.671936 
	C485.678589,492.599396 485.867920,492.526825 485.662018,492.063934 
z"/>
<path fill="#273275" opacity="1.000000" stroke="none" 
	d="
M823.507874,489.451202 
	C834.550171,491.841278 839.718567,499.280792 837.932861,510.255676 
	C830.146118,510.255676 822.264648,510.255676 814.319519,510.255676 
	C815.277283,516.019043 820.258301,518.368652 825.445435,515.921692 
	C830.846802,513.373596 830.846802,513.373657 837.328857,515.521423 
	C834.542725,521.586731 829.731201,524.513123 823.427246,525.072021 
	C816.103699,525.721313 809.852051,523.483643 806.010742,516.853577 
	C802.315552,510.475800 802.261597,503.836975 806.066650,497.435883 
	C809.893982,490.997223 815.960999,488.983398 823.507874,489.451202 
M822.929199,497.767975 
	C818.595215,497.350037 815.146057,498.301849 813.969299,503.553223 
	C818.812134,503.553223 823.294861,503.553223 827.777527,503.553223 
	C828.048584,503.153168 828.319641,502.753113 828.590698,502.353058 
	C826.947754,500.876862 825.304810,499.400665 822.929199,497.767975 
z"/>
<path fill="#1962A1" opacity="1.000000" stroke="none" 
	d="
M629.961670,498.142914 
	C624.704895,498.508453 622.882568,501.545105 623.045288,506.531708 
	C623.234009,512.313477 623.089233,518.106079 623.089233,524.083984 
	C619.604492,524.083984 616.514160,524.083984 612.984802,524.083984 
	C612.984802,517.555664 612.879089,511.257690 613.024353,504.965485 
	C613.111450,501.195801 611.760437,498.523743 607.839050,498.571442 
	C603.980774,498.618378 602.004089,500.928070 602.124939,505.069580 
	C602.304199,511.213928 602.171326,517.367371 602.171326,523.884888 
	C598.810547,523.884888 595.592407,523.884888 592.171143,523.884888 
	C592.171143,512.811340 592.171143,501.866364 592.171143,490.466370 
	C595.781738,490.937897 599.885071,487.929626 602.468079,492.895111 
	C610.074219,487.778656 614.917419,488.037750 621.546265,494.208405 
	C622.797424,493.240540 624.080627,492.247864 625.646057,491.558624 
	C623.107971,496.630188 628.412476,496.180756 629.961670,498.142914 
z"/>
<path fill="#224E8D" opacity="1.000000" stroke="none" 
	d="
M710.463806,504.506653 
	C711.810364,496.581024 716.255859,491.858551 723.518738,489.998169 
	C730.808594,488.130859 737.603943,489.447113 742.528076,495.408142 
	C747.355164,501.251587 747.970276,508.071320 744.980591,515.078674 
	C741.883240,522.338196 734.977722,525.995972 726.230591,525.130920 
	C718.139832,524.330750 712.408813,519.461426 710.876465,511.823730 
	C710.426025,509.578339 710.529602,507.221802 710.463806,504.506653 
M729.267456,498.191864 
	C724.586060,498.192566 721.728088,500.564270 720.957886,505.095032 
	C720.253723,509.237030 720.759705,513.234802 725.039734,515.360413 
	C728.306824,516.982971 731.619446,516.621460 734.091858,513.727478 
	C737.138184,510.161865 737.157166,506.003754 734.915588,502.161469 
	C733.943665,500.495392 731.697266,499.572784 729.267456,498.191864 
z"/>
<path fill="#1A82BE" opacity="1.000000" stroke="none" 
	d="
M575.135376,523.154663 
	C574.491455,522.505432 573.597900,521.825195 573.399658,521.988525 
	C568.592224,525.950806 563.264038,526.272705 557.993347,523.570801 
	C552.856995,520.937805 552.268738,515.760254 552.224365,510.623932 
	C552.167114,504.000519 552.210449,497.376251 552.210449,490.430298 
	C555.750000,490.430298 558.827515,490.430298 562.769958,490.430298 
	C562.769958,496.480133 562.778442,502.584595 562.766846,508.688995 
	C562.759766,512.436707 563.169373,515.886658 568.072205,516.066650 
	C572.178467,516.217468 574.529846,513.574402 574.606873,508.513336 
	C574.697754,502.546844 574.628235,496.577911 574.628235,490.349731 
	C578.104309,490.349731 581.044434,490.349731 584.449402,490.349731 
	C584.449402,501.413727 584.449402,512.487427 584.449402,524.500610 
	C581.463196,524.182617 578.336426,523.849731 575.135376,523.154663 
z"/>
<path fill="#14A9E0" opacity="1.000000" stroke="none" 
	d="
M443.688690,491.553162 
	C450.920410,488.108063 457.722656,488.382324 463.781647,493.010132 
	C469.234009,497.174622 470.585785,503.231262 470.011108,510.347473 
	C461.717804,510.347473 453.693115,510.347473 445.563354,510.347473 
	C447.116211,516.664917 452.004181,518.329102 457.877075,515.721741 
	C461.033936,514.320190 464.748260,514.174194 468.851013,513.329956 
	C466.993988,521.131287 461.511871,525.004639 453.657471,525.374756 
	C445.429382,525.762634 438.393890,521.050110 435.975586,513.531189 
	C433.134674,504.698273 435.732910,497.044861 443.688690,491.553162 
M448.629913,498.580933 
	C447.452118,499.998322 446.274292,501.415710 444.485016,503.568939 
	C450.335144,503.568939 454.960205,503.568939 459.695557,503.568939 
	C457.839966,497.932587 456.231720,497.139709 448.629913,498.580933 
z"/>
<path fill="#1A91CD" opacity="1.000000" stroke="none" 
	d="
M197.210510,546.888123 
	C193.075821,550.040466 188.875427,553.111206 184.826584,556.370239 
	C181.407333,559.122437 178.163818,562.092957 174.487152,564.962524 
	C175.399200,554.230957 176.666626,543.503601 178.475403,532.383728 
	C181.443802,532.553040 184.466385,532.415466 186.150696,533.849609 
	C188.374863,535.743408 188.932312,539.782227 193.097656,538.968689 
	C196.304138,538.342468 200.585205,538.455994 202.413986,536.445007 
	C207.576736,530.768005 214.519424,530.118591 221.004700,528.007324 
	C220.336334,534.021057 219.667969,540.034851 219.014786,546.485535 
	C218.992081,547.094421 218.954178,547.266418 218.438690,547.501526 
	C211.044235,547.339172 204.127380,547.113647 197.210510,546.888123 
z"/>
<path fill="#1E3F84" opacity="1.000000" stroke="none" 
	d="
M776.611694,508.151062 
	C776.187805,507.286530 775.763855,506.421997 774.708984,504.270660 
	C772.671936,511.577332 770.941406,517.784424 769.217651,523.967224 
	C768.547974,524.147705 768.084900,524.391418 767.629456,524.377930 
	C756.835876,524.057434 759.700256,526.255615 756.510254,516.041138 
	C753.901672,507.688232 751.450317,499.286224 748.791931,490.449768 
	C752.509277,490.449768 755.607056,490.449768 759.184143,490.449768 
	C760.799438,496.783173 762.471313,503.338196 764.143127,509.893250 
	C764.425415,509.929688 764.707642,509.966125 764.989929,510.002563 
	C766.048950,506.121613 767.098450,502.238007 768.169006,498.360260 
	C770.439148,490.137329 770.443665,490.138580 779.728455,490.371033 
	C781.258240,495.886505 782.852661,501.635315 784.010254,507.692871 
	C781.252808,508.051392 778.932251,508.101227 776.611694,508.151062 
z"/>
<path fill="#1A82BE" opacity="1.000000" stroke="none" 
	d="
M317.067291,525.236816 
	C315.764648,527.273010 314.620026,529.433533 313.132233,531.324036 
	C306.397034,539.881958 299.564941,548.363586 292.098541,556.925781 
	C286.981232,554.332703 282.533173,551.686523 278.085083,549.040344 
	C278.205994,548.451721 278.326904,547.863037 278.994385,546.963135 
	C291.520477,540.029846 299.623779,529.817505 306.439209,518.037354 
	C312.333923,517.472168 313.597198,522.921082 317.067291,525.236816 
z"/>
<path fill="#1962A1" opacity="1.000000" stroke="none" 
	d="
M317.364746,525.068848 
	C313.597198,522.921082 312.333923,517.472168 306.417450,517.768921 
	C305.982330,517.326904 305.968109,517.148193 306.005981,516.605469 
	C308.017120,509.858215 309.976166,503.475128 311.935242,497.092041 
	C319.544373,497.010376 327.153381,496.896667 334.762726,496.862122 
	C338.019592,496.847321 339.328583,498.369110 337.121643,501.134888 
	C330.736053,509.137390 324.162201,516.989685 317.364746,525.068848 
z"/>
<path fill="#273275" opacity="1.000000" stroke="none" 
	d="
M843.562561,491.662292 
	C847.506226,489.533997 851.187744,488.861389 853.682007,492.413818 
	C857.355347,491.264954 860.931335,490.146515 865.340637,488.767487 
	C865.149109,493.016449 865.023560,495.800903 864.882629,498.928375 
	C863.330444,498.928375 861.885742,498.873688 860.446411,498.938629 
	C856.076599,499.135803 853.659241,501.345398 853.631958,505.822571 
	C853.595520,511.793396 853.622864,517.764587 853.622864,524.000732 
	C850.319275,524.000732 847.230652,524.000732 843.481445,524.000732 
	C843.481445,513.299438 843.481445,502.697052 843.562561,491.662292 
z"/>
<path fill="#14A9E0" opacity="1.000000" stroke="none" 
	d="
M410.896667,508.996643 
	C410.893799,502.564728 410.893799,496.631622 410.893799,490.181030 
	C414.960175,490.985840 419.609558,487.405945 421.115356,492.782898 
	C424.730408,491.517181 428.374237,490.241394 432.723755,488.718536 
	C432.723755,492.951874 432.723755,495.710541 432.723755,498.804657 
	C432.045959,498.899933 431.290344,499.101593 430.535858,499.097412 
	C423.094177,499.056458 421.046143,501.027405 421.023010,508.355988 
	C421.006836,513.483459 421.019867,518.611023 421.019867,524.015869 
	C417.563385,524.015869 414.476349,524.015869 410.899536,524.015869 
	C410.899536,519.054260 410.899536,514.274841 410.896667,508.996643 
z"/>
<path fill="#273275" opacity="1.000000" stroke="none" 
	d="
M776.654175,508.556824 
	C778.932251,508.101227 781.252808,508.051392 783.994995,508.004944 
	C784.829834,508.687286 785.243042,509.366272 785.981812,510.580200 
	C787.838257,503.555023 789.560913,497.035919 791.314270,490.401001 
	C794.630981,490.401001 797.716736,490.401001 801.547119,490.401001 
	C798.114929,501.854889 794.805359,512.899536 791.447693,524.104858 
	C787.999512,524.104858 784.737488,524.104858 781.041687,524.104858 
	C779.606689,519.104065 778.151672,514.033325 776.654175,508.556824 
z"/>
<path fill="#1A82BE" opacity="1.000000" stroke="none" 
	d="
M221.009094,527.577026 
	C214.519424,530.118591 207.576736,530.768005 202.413986,536.445007 
	C200.585205,538.455994 196.304138,538.342468 193.097656,538.968689 
	C188.932312,539.782227 188.374863,535.743408 186.150696,533.849609 
	C184.466385,532.415466 181.443802,532.553040 178.592102,531.990051 
	C178.481583,528.592346 178.795715,525.195740 179.237152,521.385132 
	C191.314102,525.539307 203.513214,524.482727 215.750870,522.590515 
	C217.203430,522.365845 218.662003,522.180054 220.542908,521.977417 
	C220.983185,523.701233 220.998322,525.424011 221.009094,527.577026 
z"/>
<path fill="#1A91CD" opacity="1.000000" stroke="none" 
	d="
M297.710876,498.808319 
	C288.546417,499.428925 279.535767,499.856598 270.525391,499.851532 
	C268.903046,499.850616 267.281708,498.067596 265.288422,496.660217 
	C265.040924,495.206421 265.164917,494.199829 265.595428,493.098938 
	C267.932068,491.320038 269.962219,489.635376 272.232971,488.236450 
	C274.505676,488.256073 276.710571,488.406891 278.538788,487.649017 
	C285.081818,484.936768 291.497192,481.916565 297.960846,479.012787 
	C297.928833,485.497620 297.896820,491.982483 297.710876,498.808319 
z"/>
<path fill="#14A9E0" opacity="1.000000" stroke="none" 
	d="
M277.889343,549.337219 
	C282.533173,551.686523 286.981232,554.332703 291.787781,557.038025 
	C286.179413,565.044678 280.238159,573.011597 274.233398,580.930359 
	C271.790833,584.151489 269.210266,587.268066 265.651825,589.930176 
	C268.271423,575.960266 273.710052,563.009277 277.889343,549.337219 
z"/>
<path fill="#224E8D" opacity="1.000000" stroke="none" 
	d="
M630.288330,498.397522 
	C628.412476,496.180756 623.107971,496.630188 625.980347,491.515015 
	C635.721130,486.909637 643.691467,491.528900 644.189209,501.935364 
	C644.497986,508.390167 644.292908,514.869873 644.301758,521.338379 
	C644.302856,522.138977 644.200928,522.939697 644.128113,524.016296 
	C640.863098,524.016296 637.801575,524.016296 634.094055,524.016296 
	C634.094055,517.611938 634.393677,511.342010 633.934448,505.128113 
	C633.769775,502.899872 631.774719,500.806854 630.288330,498.397522 
z"/>
<path fill="#1A82BE" opacity="1.000000" stroke="none" 
	d="
M298.010254,478.593903 
	C291.497192,481.916565 285.081818,484.936768 278.538788,487.649017 
	C276.710571,488.406891 274.505676,488.256073 272.269379,487.892334 
	C272.602692,486.445312 273.151764,485.635437 273.675934,484.809692 
	C279.170319,476.155029 284.692200,467.511749 286.003662,457.002441 
	C286.344269,455.820496 286.684906,454.638580 287.133789,453.100616 
	C293.818573,459.957733 297.009857,468.610901 298.010254,478.593903 
z"/>
<path fill="#1A82BE" opacity="1.000000" stroke="none" 
	d="
M545.172607,499.046112 
	C545.173950,507.620636 545.173950,515.703064 545.173950,524.065308 
	C541.742126,524.065308 538.667419,524.065308 535.261597,524.065308 
	C535.261597,512.958252 535.261597,501.966003 535.261597,490.585968 
	C538.511353,490.585968 541.548157,490.585968 545.171204,490.585968 
	C545.171204,493.350464 545.171204,495.952240 545.172607,499.046112 
z"/>
<path fill="#1E3F84" opacity="1.000000" stroke="none" 
	d="
M311.619690,496.830292 
	C309.976166,503.475128 308.017120,509.858215 305.658234,516.576172 
	C303.791840,515.138794 302.325287,513.366455 300.858765,511.594147 
	C304.083649,499.899536 305.903778,488.085236 304.206543,475.278320 
	C305.700378,473.074677 306.884247,471.537506 308.334656,470.243988 
	C310.026886,476.174103 311.452606,481.860535 312.878326,487.546997 
	C312.353607,490.554169 311.828888,493.561371 311.619690,496.830292 
z"/>
<path fill="#1B3074" opacity="1.000000" stroke="none" 
	d="
M308.068085,470.000336 
	C306.884247,471.537506 305.700378,473.074677 304.249054,474.811218 
	C302.945343,471.565125 302.034241,468.075958 300.848877,464.682526 
	C297.554077,455.250183 292.070892,447.372528 284.271454,441.017426 
	C282.367767,439.466248 281.291260,436.899963 279.834442,434.800415 
	C282.324615,434.099091 284.814819,433.397797 287.655304,432.805481 
	C287.509644,441.081421 294.509827,444.932953 298.178528,450.717957 
	C301.610779,456.130157 304.698944,461.760590 307.981567,467.985840 
	C308.039062,469.117920 308.053558,469.559113 308.068085,470.000336 
z"/>
<path fill="#164D91" opacity="1.000000" stroke="none" 
	d="
M300.602600,511.849915 
	C302.325287,513.366455 303.791840,515.138794 305.606140,516.940308 
	C305.968109,517.148193 305.982330,517.326904 306.018311,517.774048 
	C299.623779,529.817505 291.520477,540.029846 279.222778,546.760803 
	C279.416504,542.104309 281.213165,538.164978 285.031464,534.926819 
	C292.245392,528.809082 297.134979,520.984619 300.602600,511.849915 
z"/>
<path fill="#14A9E0" opacity="1.000000" stroke="none" 
	d="
M475.058289,499.455261 
	C478.318146,501.008301 481.510742,503.010712 485.094208,505.065491 
	C485.485077,511.329041 485.485077,517.540222 485.485077,524.013000 
	C482.236023,524.013000 479.329193,524.013000 475.458832,524.013000 
	C475.458832,519.931824 475.458832,515.939026 475.766602,511.447571 
	C475.751068,510.299866 475.427765,509.650848 475.104431,509.001862 
	C475.066620,505.969452 475.028809,502.937012 475.058289,499.455261 
z"/>
<path fill="#1962A1" opacity="1.000000" stroke="none" 
	d="
M197.478958,547.073608 
	C204.127380,547.113647 211.044235,547.339172 218.315521,547.735229 
	C218.368530,551.322266 218.067139,554.738770 217.641739,558.584167 
	C210.927628,555.095032 204.337509,551.177063 197.478958,547.073608 
z"/>
<path fill="#1A91CD" opacity="1.000000" stroke="none" 
	d="
M538.525024,485.757629 
	C534.582031,484.194153 533.070374,481.239349 535.171753,478.226562 
	C536.413574,476.446136 539.947998,475.019012 542.020142,475.459961 
	C543.661194,475.809174 545.711548,479.252899 545.692383,481.304901 
	C545.656433,485.153992 542.489014,486.255127 538.525024,485.757629 
z"/>
<path fill="#224E8D" opacity="1.000000" stroke="none" 
	d="
M308.334656,470.243988 
	C308.053558,469.559113 308.039062,469.117920 308.028931,468.346069 
	C311.493073,469.868439 314.952820,471.721466 318.679535,473.774902 
	C317.067505,478.341156 315.188477,482.707001 313.093872,487.309937 
	C311.452606,481.860535 310.026886,476.174103 308.334656,470.243988 
z"/>
<path fill="#1B3074" opacity="1.000000" stroke="none" 
	d="
M328.704376,432.909332 
	C329.291656,434.406769 329.578308,435.803284 329.885681,437.300568 
	C325.741669,439.173553 325.660645,435.463379 324.145447,433.339600 
	C325.467163,432.945679 326.935486,432.877045 328.704376,432.909332 
z"/>
<path fill="#1E3F84" opacity="1.000000" stroke="none" 
	d="
M273.728546,442.884583 
	C273.827087,443.873474 273.655396,444.749664 273.483673,445.625885 
	C273.084473,445.763275 272.685242,445.900665 272.286041,446.038055 
	C271.548523,444.538727 270.811035,443.039368 270.113586,441.156738 
	C271.255188,441.439606 272.356750,442.105743 273.728546,442.884583 
z"/>
<path fill="#1B3074" opacity="1.000000" stroke="none" 
	d="
M297.756622,432.820587 
	C296.814178,433.109802 295.595306,433.289948 294.167786,433.193695 
	C295.132843,432.848694 296.306488,432.780121 297.756622,432.820587 
z"/>
<path fill="#164D91" opacity="1.000000" stroke="none" 
	d="
M180.839188,509.217651 
	C181.035416,509.594025 181.108536,510.196991 180.947723,510.877502 
	C180.714539,510.451477 180.715302,509.947815 180.839188,509.217651 
z"/>
<path fill="#1A91CD" opacity="1.000000" stroke="none" 
	d="
M475.043762,509.294128 
	C475.427765,509.650848 475.751068,510.299866 475.781403,511.086578 
	C475.319977,510.678314 475.151550,510.132324 475.043762,509.294128 
z"/>
<path fill="#1B3074" opacity="1.000000" stroke="none" 
	d="
M265.288940,493.193207 
	C265.164917,494.199829 265.040924,495.206421 264.927460,496.593262 
	C259.764801,511.810791 248.088486,515.533264 233.130661,515.052673 
	C231.492401,514.909912 230.698181,514.804321 229.925659,514.264526 
	C230.974075,501.338196 231.944946,488.840820 233.120895,476.362823 
	C233.228943,475.216278 234.441971,473.544159 235.488022,473.214600 
	C244.561859,470.355865 258.666687,475.973145 263.655792,484.135376 
	C264.111084,484.880249 265.058075,485.324585 265.845642,486.319153 
	C265.706055,488.884277 265.497498,491.038757 265.288940,493.193207 
z"/>
<path fill="#1A82BE" opacity="1.000000" stroke="none" 
	d="
M229.903976,514.698730 
	C230.698181,514.804321 231.492401,514.909912 232.679169,515.103149 
	C229.332748,517.142395 225.593735,519.094116 221.484039,521.072388 
	C221.408386,519.270386 221.703415,517.441772 222.454819,515.271484 
	C225.242126,514.852783 227.573044,514.775757 229.903976,514.698730 
z"/>
<path fill="#10204E" opacity="1.000000" stroke="none" 
	d="
M229.925659,514.264526 
	C227.573044,514.775757 225.242126,514.852783 222.476425,514.871765 
	C222.985489,505.833740 223.929306,496.853790 224.851562,487.461121 
	C225.675323,480.225159 226.520630,473.401917 227.421722,466.128326 
	C235.029068,466.128326 242.525513,465.387634 249.769394,466.419678 
	C253.800461,466.993958 257.410797,470.521606 261.609375,473.237946 
	C263.264252,477.807922 264.520477,481.858215 265.776703,485.908508 
	C265.058075,485.324585 264.111084,484.880249 263.655792,484.135376 
	C258.666687,475.973145 244.561859,470.355865 235.488022,473.214600 
	C234.441971,473.544159 233.228943,475.216278 233.120895,476.362823 
	C231.944946,488.840820 230.974075,501.338196 229.925659,514.264526 
z"/>
<path fill="#1962A1" opacity="1.000000" stroke="none" 
	d="
M265.845642,486.319153 
	C264.520477,481.858215 263.264252,477.807922 261.893250,473.406128 
	C265.370331,470.350800 268.867523,467.507904 272.579437,464.980408 
	C276.702209,462.173218 281.020813,459.653656 285.628906,457.005646 
	C284.692200,467.511749 279.170319,476.155029 273.675934,484.809692 
	C273.151764,485.635437 272.602692,486.445312 272.028778,487.606628 
	C269.962219,489.635376 267.932068,491.320038 265.595459,493.098938 
	C265.497498,491.038757 265.706055,488.884277 265.845642,486.319153 
z"/>
<path fill="#FEFEFE" opacity="1.000000" stroke="none" 
	d="
M395.166260,494.773499 
	C394.428528,499.597870 391.670654,501.350464 387.404175,501.261810 
	C384.434357,501.200104 381.462250,501.249908 378.132996,501.249908 
	C378.132996,496.315521 378.132996,491.769531 378.132996,487.236511 
	C390.711914,485.758972 395.243835,486.645264 395.166260,494.773499 
z"/>
<path fill="#FEFEFE" opacity="1.000000" stroke="none" 
	d="
M696.580200,496.343475 
	C694.087097,498.160492 691.881104,500.238434 689.318054,500.871826 
	C686.382568,501.597198 683.130127,501.039948 679.732422,501.039948 
	C679.732422,496.210815 679.732422,491.768158 679.732422,487.299744 
	C692.091309,484.965973 697.854736,487.263336 696.580200,496.343475 
z"/>
<path fill="#FEFEFE" opacity="1.000000" stroke="none" 
	d="
M485.859619,492.259094 
	C485.867920,492.526825 485.678589,492.599396 485.489258,492.671936 
	C485.546844,492.469269 485.604431,492.266602 485.859619,492.259094 
z"/>
<path fill="#FEFEFE" opacity="1.000000" stroke="none" 
	d="
M823.295532,497.846222 
	C825.304810,499.400665 826.947754,500.876862 828.590698,502.353058 
	C828.319641,502.753113 828.048584,503.153168 827.777527,503.553223 
	C823.294861,503.553223 818.812134,503.553223 813.969299,503.553223 
	C815.146057,498.301849 818.595215,497.350037 823.295532,497.846222 
z"/>
<path fill="#FEFEFE" opacity="1.000000" stroke="none" 
	d="
M729.648621,498.252167 
	C731.697266,499.572784 733.943665,500.495392 734.915588,502.161469 
	C737.157166,506.003754 737.138184,510.161865 734.091858,513.727478 
	C731.619446,516.621460 728.306824,516.982971 725.039734,515.360413 
	C720.759705,513.234802 720.253723,509.237030 720.957886,505.095032 
	C721.728088,500.564270 724.586060,498.192566 729.648621,498.252167 
z"/>
<path fill="#FEFEFE" opacity="1.000000" stroke="none" 
	d="
M448.977234,498.374451 
	C456.231720,497.139709 457.839966,497.932587 459.695557,503.568939 
	C454.960205,503.568939 450.335144,503.568939 444.485016,503.568939 
	C446.274292,501.415710 447.452118,499.998322 448.977234,498.374451 
z"/>
</svg>