<?xml version="1.0" encoding="UTF-8"?>
<!-- Generator: Adobe Illustrator 25.0.0, SVG Export Plug-In . SVG Version: 6.00 Build 0)  -->
<svg id="Volvo_Penta" enable-background="new 0 0 850.39 177.29" version="1.1" viewBox="0 0 850.39 177.29" xml:space="preserve" xmlns="http://www.w3.org/2000/svg">
<title>Volvo Penta logo</title>
<desc>A division of Volvo Group</desc>
<polygon points="76.08 11.04 88.4 11.04 67.81 49.14 46.93 11.04 61.91 11.04 61.9 1.54 0 1.54 0 11.05 14.16 11.05 42.94 63.28 76.34 63.28 104.57 11.04 118.74 11.04 118.75 1.54 76.08 1.54"/>
<polygon points="625.13 11.04 637.45 11.04 616.85 49.14 595.98 11.04 610.95 11.04 610.95 1.54 549.05 1.54 549.05 11.05 563.21 11.05 591.99 63.28 625.39 63.28 653.61 11.04 667.79 11.04 667.79 1.54 625.13 1.54"/>
<path d="m394.79 53.7h-14.4v9.59l85.67-0.01v-28.58h-9.41c0 4.61-1.95 10.04-6.01 13.9-1.4 1.3-2.95 2.5-4.71 3.36-2.28 1.14-4.43 1.73-9.51 1.73-3.42 0-10.72 0.01-13.16 0.01v-42.65h14.21v-9.51h-57.06v9.51h14.38v42.65z"/>
<path d="m242.41 55.1c-10.5 0-15.29-11.48-15.3-22.97 0-11.9 5.51-22.39 15.32-22.39 9.8 0 15.15 10.49 15.15 22.39 0 11.23-4.43 22.97-15.23 22.97h0.06zm0.06 9.83c29.39 0 43.87-14.51 43.87-32.67-0.01-17.95-15.38-32.26-44.04-32.26-28.65 0-43.88 14.31-43.88 32.25 0 18.17 14.66 32.68 44.05 32.68z"/>
<path d="m791.79 55.1c-10.52 0-15.3-11.48-15.3-22.97 0-11.9 5.51-22.39 15.32-22.39s15.16 10.49 15.16 22.39c0 11.23-4.42 22.97-15.25 22.97h0.07zm0.05 9.83c29.36 0 43.87-14.51 43.87-32.67 0-17.94-15.4-32.25-44.03-32.25-28.68-0.01-43.88 14.3-43.88 32.24 0 18.17 14.64 32.68 44.04 32.68z"/>
<path d="m284.84 139.26v-23.71h-85.36v9.47h13.82v42.69h-13.82v9.57h85.36v-28.3h-9.44v2.27c0 9.15-6.23 16.41-14.27 16.41h-19.35v-18.69h19.35v-9.09h-19.35v-14.88h19.9c6.86 0 12.39 5.1 13.72 14.24h9.44z"/>
<path d="m629.02 125.02c7.97 0 14.41 6.28 14.41 14.24h9.45v-23.71h-85.83v23.71h9.44c0-7.96 6.47-14.19 14.44-14.24h4.79v42.69h-13.88v9.58h56.26v-9.58h-13.9v-42.69h4.82z"/>
<polygon points="411.11 177.29 411.11 167.71 397.17 167.71 397.17 139.26 440.12 177.29 463.9 177.29 463.9 125.02 478.01 125.02 478.01 115.55 435.39 115.55 435.39 125.02 449.45 125.02 449.45 146.23 413.94 115.55 368.67 115.55 368.67 125.02 382.71 125.02 382.71 167.71 368.67 167.71 368.67 177.29"/>
<path d="m59.08 144.2v-19.18h8.43c3.89 0 7.38 1.39 9.55 3.64 1.51 1.51 2.45 3.69 2.45 6.08 0 2.55-1.08 4.81-2.73 6.36-2.17 2.01-5.53 3.1-9.27 3.1h-8.43zm49.08-9.36c0-4.74-1.89-9.03-4.9-12.07-4.31-4.44-11.2-7.23-18.94-7.23h-67.88v9.47h14.15v42.69h-14.15v9.58h57.08v-9.58h-14.44v-14.11h25.24c7.43 0 14.06-2.15 18.39-6.16 3.29-3.04 5.45-7.55 5.45-12.59z"/>
<path d="m745.92 167.71h-14.18v9.58c1.69 0.01 40.29 0.01 42.65 0.01 0.01-2.19 0-9.58 0-9.58l-12.3 0.03c0.28-0.55 2.28-4.25 4.95-9.16h31.43l5.03 9.13h-14.9v9.58h61.79v-9.58h-14.11l-28.77-52.16h-33.33l-28.26 52.15zm36.75-37.98 10.46 19.06h-20.78l10.32-19.06z"/>
</svg>
